<?xml version="1.0" encoding="utf-8"?><svg xmlns="http://www.w3.org/2000/svg" xmlns:xlink="http://www.w3.org/1999/xlink" width="1889" height="1276" preserveAspectRatio="xMidYMid" viewBox="0 0 1889 1276" style="z-index:1;margin-right:-2px;display:block;background-repeat-y:initial;background-repeat-x:initial;animation-play-state:paused" ><g transform="translate(944.5,638) scale(1,1) translate(-944.5,-638)" style="transform:matrix(1, 0, 0, 1, 0, 0);animation-play-state:paused" ><g transform="translate(1854.938825231572,137.48202029202287) scale(100)" opacity="0.54" style="transform:matrix(100, 0, 0, 100, 1854.94, 137.482);opacity:0.54;animation-play-state:paused" ><path d="M9.97392 0 C9.97392 2.90906 10.997234525312395 2.067176017004133 9.735040695195071 4.688148511864345 S8.493032096943306 5.984155416622364 6.21863740455486 7.797924659617531 S5.240480285284351 9.886847337222623 2.404356493072694 10.534174085357579 S0.6167177986060932 10.37117975000349 -2.219405993605563 9.723853001868534 S-4.462462495879317 10.261520957580828 -6.736857188267764 8.44775171458566 S-7.723997580831972 6.948494198119608 -8.986191410949296 4.3275217032593964 S-10.80508 2.9090600000000015 -10.80508 1.3232406636531084e-15 S-10.24838524106662 -1.7065492083991822 -8.986191410949296 -4.327521703259394 S-9.011251880656213 -6.633982471590491 -6.736857188267766 -8.447751714585658 S-5.055529785817221 -9.076526253733578 -2.219405993605565 -9.723853001868534 S-0.43176729913896406 -11.181500833492535 2.404356493072692 -10.534174085357579 S3.9442427121664103 -9.6116939026127 6.218637404554857 -7.797924659617532 S8.472846865077745 -7.309121006724558 9.73504069519507 -4.688148511864347 S9.97392 -2.909060000000003 9.97392 -2.4429058405903536e-15" fill="#b83128" stroke-width="0" transform="matrix(1,0,0,1,0,0)" style="transform:matrix(1, 0, 0, 1, 0, 0);animation-play-state:paused" ></path></g>
<g transform="translate(2037.0265902778865,37.378424350427395) scale(100)" opacity="0.54" style="transform:matrix(100, 0, 0, 100, 2037.03, 37.3784);opacity:0.54;animation-play-state:paused" ><path d="M11.968703999999999 0 C11.968703999999999 3.4908720000000004 13.196681430374875 2.48061122040496 11.682048834234086 5.625778214237214 S10.191638516331967 7.180986499946835 7.462364885465831 9.357509591541037 S6.288576342341221 11.864216804667146 2.885227791687233 12.641008902429094 S0.7400613583273126 12.445415700004187 -2.663287192326675 11.66862360224224 S-5.354954995055179 12.313825149096996 -8.084228625921316 10.137302057502794 S-9.268797096998364 8.33819303774353 -10.783429693139153 5.193026043911275 S-12.966096 3.490872000000002 -12.966096 1.58788879638373e-15 S-12.298062289279944 -2.0478590500790186 -10.783429693139155 -5.1930260439112725 S-10.813502256787455 -7.960778965908588 -8.08422862592132 -10.13730205750279 S-6.066635742980665 -10.891831504480292 -2.663287192326678 -11.66862360224224 S-0.5181207589667576 -13.41780100019104 2.88522779168723 -12.641008902429094 S4.733091254599692 -11.534032683135239 7.462364885465829 -9.357509591541039 S10.167416238093296 -8.77094520806947 11.682048834234084 -5.625778214237217 S11.968703999999999 -3.4908720000000035 11.968703999999999 -2.9314870087084244e-15" fill="#c44a44" stroke-width="0" transform="matrix(1,0,0,1,0,0)" style="transform:matrix(1, 0, 0, 1, 0, 0);animation-play-state:paused" ></path></g>
<g transform="translate(2474.0372263890413,-202.87020590940153) scale(100)" opacity="0.54" style="transform:matrix(100, 0, 0, 100, 2474.04, -202.87);opacity:0.54;animation-play-state:paused" ><path d="M16.7561856 0 C16.7561856 4.8872208 18.47535400252482 3.472855708566943 16.35486836792772 7.876089499932098 S14.268293922864755 10.05338109992557 10.447310839652165 13.100513428157452 S8.804006879277708 16.609903526534 4.039318908362126 17.697412463400727 S1.036085901658236 17.423581980005864 -3.728602069257345 16.336073043139137 S-7.4969369930772505 17.239355208735788 -11.317920076289841 14.192222880503907 S-12.976315935797711 11.67347025284094 -15.096801570394815 7.270236461475785 S-18.152534399999997 4.887220800000002 -18.152534399999997 2.2230443149372216e-15 S-17.21728720499192 -2.867002670110627 -15.096801570394817 -7.270236461475782 S-15.138903159502437 -11.145090552272022 -11.317920076289846 -14.192222880503904 S-8.49329004017293 -15.248564106272411 -3.728602069257349 -16.336073043139137 S-0.7253690625534599 -18.784921400267454 4.039318908362121 -17.697412463400727 S6.62632775643957 -16.147645756389334 10.447310839652161 -13.100513428157454 S14.23438273333061 -12.279323291297256 16.354868367927715 -7.876089499932102 S16.7561856 -4.887220800000004 16.7561856 -4.104081812191794e-15" fill="#ce6260" stroke-width="0" transform="matrix(1,0,0,1,0,0)" style="transform:matrix(1, 0, 0, 1, 0, 0);animation-play-state:paused" ></path></g></g></svg>